<?xml version="1.0" encoding="utf-8"?>
<!-- Generator: Adobe Illustrator 18.1.1, SVG Export Plug-In . SVG Version: 6.00 Build 0)  -->
<svg version="1.1" id="Layer_1" xmlns="http://www.w3.org/2000/svg" xmlns:xlink="http://www.w3.org/1999/xlink" x="0px" y="0px"
	 viewBox="0 0 1296 720" enable-background="new 0 0 1296 720" xml:space="preserve">
<g>
	<g>
		<path fill="#693248" d="M74.1,351.2c18.7,0,29-13.5,29-30.6c0-17.6-10.4-29-29-29H34.7v59.6H74.1z M78.3,428.9
			c17.6,0,30.6-13.5,30.6-31.1c0-17.1-16.1-30.1-34.7-30.1H34.2v61.2H78.3z M16.1,279.1c0-2.1,2.1-4.7,4.7-4.7h53.4
			c29.5,0,49.8,19.2,49.8,45.1c0,18.7-12.4,32.7-23.8,38.9c13,5.2,29,17.1,29,39.9c0,27.5-21.8,47.2-52.9,47.2H20.7
			c-2.6,0-4.7-2.1-4.7-4.7V279.1z"/>
		<path fill="#693248" d="M261.3,387.5c-11.9-26.4-23.8-53.4-35.8-79.8h-2.1l-35.8,79.8H261.3z M145.2,438.8L219.3,275
			c0.5-1.6,2.1-2.6,4.1-2.6h2.6c2.1,0,3.6,1,4.1,2.6l73.6,163.8c1.6,3.1-0.5,6.2-4.1,6.2h-9.8c-2.1,0-3.6-1.6-4.1-2.6L267.5,402
			h-86.6l-17.6,40.4c-0.5,1-2.1,2.6-4.1,2.6h-9.8C145.7,445.5,143.6,441.9,145.2,438.8"/>
		<path fill="#693248" d="M397.1,362.6c18.7,0,35.3-15.6,35.3-35.8c-0.5-18.7-16.6-34.2-35.3-34.2h-47.2v70H397.1z M330.2,279.1
			c0-2.6,2.1-4.7,4.7-4.7h63.2c29,0,52.9,23.3,52.9,52.4c0,22.3-15,41-36.3,49.8l33.2,61.7c1.6,3.1,0,7.3-4.1,7.3h-12.4
			c-2.1,0-3.6-1-4.1-2.1l-32.7-64.8h-46.7v62.2c0,2.6-2.1,4.7-4.7,4.7h-9.3c-2.6,0-4.7-2.1-4.7-4.7V279.1H330.2z"/>
		<path fill="#693248" d="M566.6,430.5c38.9,0,70.5-31.6,70.5-70.5s-32.1-71-70.5-71c-38.9,0-70.5,32.1-70.5,71
			C496.1,398.9,527.7,430.5,566.6,430.5 M566.6,272.4c48.7,0,87.6,39.4,87.6,88.1s-38.9,87.6-87.6,87.6S479,409.2,479,360.5
			C479,311.3,517.9,272.4,566.6,272.4"/>
		<path fill="#693248" d="M691.5,276.5c0-2.6,2.1-4.7,4.7-4.7h6.2l109.9,136.9h0.5V279.1c0-2.6,2.1-4.7,4.7-4.7h8.3
			c2.6,0,4.7,2.1,4.7,4.7v163.8c0,2.6-2.1,4.1-4.7,4.1h-4.7L709.7,308.2l0,0v132.7c0,2.6-2.1,4.7-4.7,4.7h-8.8
			c-2.6,0-4.7-2.1-4.7-4.7L691.5,276.5L691.5,276.5z"/>
		<path fill="#693248" d="M934.7,279.1c0-2.6,2.1-4.7,4.7-4.7h95.9c2.6,0,4.7,2.1,4.7,4.7v7.3c0,2.6-2.1,4.7-4.7,4.7h-81.9v66.9h70
			c2.6,0,4.7,2.1,4.7,4.7v7.3c0,2.6-2.1,4.7-4.7,4.7h-70v66.4c0,2.6-2.1,4.7-4.7,4.7h-9.3c-2.6,0-4.7-2.1-4.7-4.7V279.1z"/>
		<path fill="#693248" d="M1073.1,279.1c0-2.6,2.1-4.7,4.7-4.7h9.8c2.6,0,4.7,2.1,4.7,4.7v161.2c0,2.6-2.1,4.7-4.7,4.7h-9.8
			c-2.6,0-4.7-2.1-4.7-4.7V279.1z"/>
		<path fill="#693248" d="M1217.7,272.4c24.9,0,42.5,8.3,59.1,22.8c2.1,2.1,2.1,4.7,0,6.7c-2.1,2.1-4.7,4.7-6.7,6.7
			c-2.1,2.6-3.6,2.1-6.2,0c-12.4-10.9-30.1-19.2-46.1-19.2c-38.4,0-67.9,32.1-67.9,70c0,37.3,29,70.5,67.9,70.5
			c27,0,44.1-10.4,44.1-10.4v-34.2h-28c-2.6,0-4.7-2.1-4.7-4.1v-8.8c0-2.6,2.1-4.7,4.7-4.7h42c2.6,0,4.7,2.1,4.7,4.7v56
			c0,1-1,3.1-2.1,4.1c0,0-24.9,16.1-60.1,16.1c-48.7,0-88.1-38.9-88.1-87.6C1129.6,311.3,1169,272.4,1217.7,272.4"/>
	</g>
</g>
</svg>
